<svg width="977" height="400" viewBox="0 0 977 582" fill="none" xmlns="http://www.w3.org/2000/svg">
<path d="M299.155 16.167C145.006 -32.7542 44.5802 34.6245 25.0069 155.468C9.1046 253.647 -28.4322 400.712 40.1847 479.674C97.1426 545.219 178.899 556.768 272.12 568.396C355.21 578.759 482.252 546.694 565.715 538.96C630.166 532.988 724.894 596.553 786.267 578.346C835.093 563.86 927.758 461.905 955.12 423.705C989.27 376.028 977.585 236.419 955.12 155.468C935.212 83.7316 835.414 118.063 752.591 103.645C682.498 91.4422 709.904 70.4778 661.525 65.5027C573.437 56.4443 587.059 58.4547 536.308 58.4547C465.98 58.4547 516.387 65.5027 460.894 58.4547C399.739 50.6878 357.242 34.6014 299.155 16.167Z" fill="#F1E3D3"/>
</svg>
